<svg width="48" height="48" viewBox="0 0 48 48" fill="none" xmlns="http://www.w3.org/2000/svg">
<path d="M20.2948 14.3966L20.2946 14.3965L20.2853 14.4063C19.8518 14.8634 19.1483 14.8783 18.6666 14.4272C18.2313 13.9871 18.2329 13.2496 18.6713 12.8116L23.6792 7.80896C24.1286 7.39027 24.91 7.40563 25.3082 7.80342L30.3217 12.8116C30.7617 13.2512 30.7617 13.9924 30.3217 14.4319C30.0943 14.6591 29.7963 14.7794 29.51 14.7794C29.2236 14.7794 28.9257 14.6591 28.6983 14.4319L26.5093 12.2452L25.6559 11.3928V12.599V19.7939C25.6559 20.4342 25.1388 20.9515 24.4965 20.9515C23.8542 20.9515 23.3371 20.4342 23.3371 19.7939V12.5637V11.3575L22.4838 12.21L20.2948 14.3966Z" stroke="#999999"/>
<path d="M30.6856 20.7202L30.6851 20.7196C30.2427 20.2531 30.2633 19.5469 30.7366 19.0991C31.2039 18.6568 31.9117 18.6775 32.3603 19.1505L32.362 19.1523L32.373 19.1641L32.4162 19.2102L32.5806 19.3857L33.1708 20.0157L34.9929 21.9609C36.3395 23.3988 37.7419 24.8966 37.9706 25.1426C38.3736 25.5761 38.599 26.1055 38.4563 26.6045L38.4562 26.6045L38.4543 26.6115L35.1369 38.88C34.9488 39.5172 34.364 39.9617 33.7117 39.9617H15.2819C14.6295 39.9617 14.0448 39.5172 13.8566 38.8799L10.5392 26.6115L10.5393 26.6115L10.5373 26.6045C10.4691 26.3661 10.4972 26.0911 10.6002 25.8142C10.7035 25.5367 10.8676 25.2983 11.0101 25.1559L11.0178 25.1482L11.0252 25.1402C11.217 24.9312 12.6175 23.4354 13.9741 21.9875C14.6515 21.2645 15.3168 20.5547 15.8127 20.0257L16.4099 19.3887L16.5764 19.2111L16.6202 19.1644L16.6314 19.1525L16.6341 19.1496C17.0693 18.6917 17.7792 18.6771 18.2621 19.104C18.7304 19.5521 18.7492 20.2548 18.3085 20.7196L18.3079 20.7202L15.3069 23.8944L14.5094 24.7379H15.6702H33.3233H34.4841L33.6866 23.8944L30.6856 20.7202ZM18.7419 36.8352C19.6177 36.8352 20.3364 36.118 20.3364 35.2418V29.493C20.3364 28.6168 19.6177 27.8996 18.7419 27.8996C17.866 27.8996 17.1474 28.6168 17.1474 29.493V35.2418C17.1474 36.118 17.866 36.8352 18.7419 36.8352ZM24.4968 36.8352C25.3726 36.8352 26.0913 36.118 26.0913 35.2418V29.493C26.0913 28.6168 25.3726 27.8996 24.4968 27.8996C23.6209 27.8996 22.9023 28.6168 22.9023 29.493V35.2418C22.9023 36.118 23.6209 36.8352 24.4968 36.8352ZM30.2517 36.8352C31.1275 36.8352 31.8462 36.118 31.8462 35.2418V29.493C31.8462 28.6168 31.1275 27.8996 30.2517 27.8996C29.3758 27.8996 28.6572 28.6168 28.6572 29.493V35.2418C28.6572 36.118 29.3758 36.8352 30.2517 36.8352Z" stroke="#999999"/>
</svg>
