<svg width="44" height="48" viewBox="0 0 44 48" fill="none" xmlns="http://www.w3.org/2000/svg">
<path fill-rule="evenodd" clip-rule="evenodd" d="M12.8456 11.88V15.0134H8.25V11.88C8.25 10.8417 9.02157 10 9.97336 10H11.1223C12.074 10 12.8456 10.8417 12.8456 11.88ZM34.1003 10H16.8667C15.915 10 15.1434 10.8417 15.1434 11.88V36.947C15.1434 37.9853 15.915 38.827 16.8667 38.827H34.1003C35.0521 38.827 35.8237 37.9853 35.8237 36.947V11.88C35.8237 10.8417 35.0521 10 34.1003 10ZM19.9074 32.3767L18.7585 31.1233C18.5408 30.8774 18.5439 30.4866 18.7655 30.2448C18.9871 30.0031 19.3454 29.9997 19.5708 30.2372L20.3135 31.0475L22.2052 28.9838C22.4306 28.7464 22.7889 28.7498 23.0105 28.9915C23.2321 29.2332 23.2352 29.6241 23.0175 29.87L20.7197 32.3767C20.4953 32.6213 20.1317 32.6213 19.9074 32.3767ZM20.7197 26.1099L23.0175 23.6032C23.2352 23.3573 23.2321 22.9665 23.0105 22.7247C22.7889 22.483 22.4306 22.4796 22.2052 22.7171L20.3135 24.7807L19.5708 23.9705C19.3454 23.733 18.9871 23.7364 18.7655 23.9781C18.5439 24.2198 18.5408 24.6107 18.7585 24.8566L19.9074 26.1099C20.1317 26.3546 20.4953 26.3546 20.7197 26.1099ZM19.9074 19.8432L18.7585 18.5898C18.5408 18.3439 18.5439 17.9531 18.7655 17.7113C18.9871 17.4696 19.3454 17.4662 19.5708 17.7037L20.3135 18.514L22.2052 16.4503C22.3494 16.2874 22.563 16.2221 22.7639 16.2795C22.9647 16.3368 23.1216 16.5079 23.1741 16.727C23.2267 16.9461 23.1668 17.1791 23.0175 17.3365L20.7197 19.8432C20.4953 20.0878 20.1317 20.0878 19.9074 19.8432ZM24.9092 31.3069H31.8027C32.1199 31.3069 32.3771 31.0264 32.3771 30.6803C32.3771 30.3342 32.1199 30.0536 31.8027 30.0536H24.9092C24.592 30.0536 24.3348 30.3342 24.3348 30.6803C24.3348 31.0264 24.592 31.3069 24.9092 31.3069ZM31.8027 25.0402H24.9092C24.592 25.0402 24.3348 24.7596 24.3348 24.4135C24.3348 24.0674 24.592 23.7868 24.9092 23.7868H31.8027C32.1199 23.7868 32.3771 24.0674 32.3771 24.4135C32.3771 24.7596 32.1199 25.0402 31.8027 25.0402ZM24.9092 18.7734H31.8027C32.1199 18.7734 32.3771 18.4929 32.3771 18.1468C32.3771 17.8007 32.1199 17.5201 31.8027 17.5201H24.9092C24.592 17.5201 24.3348 17.8007 24.3348 18.1468C24.3348 18.4929 24.592 18.7734 24.9092 18.7734ZM12.8456 16.2667H8.25V36.947C8.25 37.9853 9.02157 38.827 9.97336 38.827H11.1223C12.074 38.827 12.8456 37.9853 12.8456 36.947V16.2667Z" fill="#0EBEA6"/>
</svg>
