<svg width="44" height="48" viewBox="0 0 44 48" fill="none" xmlns="http://www.w3.org/2000/svg">
<path fill-rule="evenodd" clip-rule="evenodd" d="M10.0675 10H11.2792C12.283 10 13.0967 10.8137 13.0967 11.8175V36.0509C13.0967 37.0547 12.283 37.8684 11.2792 37.8684H10.0675C9.06372 37.8684 8.25 37.0547 8.25 36.0509V11.8175C8.25 10.8137 9.06372 10 10.0675 10ZM34.9065 10H16.7314C15.7276 10 14.9139 10.8137 14.9139 11.8175V36.0509C14.9139 37.0547 15.7276 37.8684 16.7314 37.8684H34.9065C35.9102 37.8684 36.724 37.0547 36.724 36.0509V11.8175C36.724 10.8137 35.9102 10 34.9065 10ZM35.4118 36.0509C35.4114 36.3854 35.1404 36.6564 34.806 36.6568H16.631C16.2965 36.6564 16.0255 36.3854 16.0251 36.0509V11.8175C16.0255 11.4831 16.2965 11.2121 16.631 11.2117H34.806C35.1404 11.2121 35.4114 11.4831 35.4118 11.8175V36.0509ZM31.6755 18.4817C32.0101 18.4817 32.2814 18.2105 32.2814 17.8759C32.2814 17.5413 32.0101 17.27 31.6755 17.27H24.4055C24.0709 17.27 23.7997 17.5413 23.7997 17.8759C23.7997 18.2105 24.0709 18.4817 24.4055 18.4817H31.6755ZM22.9149 16.2359C23.1514 16.4724 23.1514 16.8559 22.9149 17.0925L20.4916 19.5159C20.255 19.7524 19.8715 19.7524 19.6349 19.5159L18.4233 18.3042C18.1937 18.0665 18.197 17.6886 18.4306 17.4549C18.6643 17.2212 19.0422 17.2179 19.2799 17.4475L20.0633 18.2309L22.0583 16.2359C22.2949 15.9994 22.6783 15.9994 22.9149 16.2359ZM31.6755 24.54C32.0101 24.54 32.2814 24.2688 32.2814 23.9342C32.2814 23.5996 32.0101 23.3284 31.6755 23.3284H24.4055C24.0709 23.3284 23.7997 23.5996 23.7997 23.9342C23.7997 24.2688 24.0709 24.54 24.4055 24.54H31.6755ZM22.9149 22.2942C23.1514 22.5308 23.1514 22.9143 22.9149 23.1509L20.4916 25.5742C20.255 25.8107 19.8715 25.8107 19.6349 25.5742L18.4233 24.3625C18.1937 24.1248 18.197 23.7469 18.4306 23.5133C18.6643 23.2796 19.0422 23.2763 19.2799 23.5059L20.0633 24.2892L22.0583 22.2942C22.2949 22.0577 22.6783 22.0577 22.9149 22.2942ZM31.0192 30.5984C31.3259 30.5984 31.5745 30.3271 31.5745 29.9925C31.5745 29.6579 31.3259 29.3867 31.0192 29.3867H24.355C24.0483 29.3867 23.7997 29.6579 23.7997 29.9925C23.7997 30.3271 24.0483 30.5984 24.355 30.5984H31.0192ZM22.9149 28.3525C23.1514 28.5891 23.1514 28.9726 22.9149 29.2092L20.4916 31.6325C20.255 31.869 19.8715 31.869 19.6349 31.6325L18.4233 30.4209C18.1937 30.1831 18.197 29.8053 18.4306 29.5716C18.6643 29.3379 19.0422 29.3346 19.2799 29.5642L20.0633 30.3475L22.0583 28.3525C22.2949 28.116 22.6783 28.116 22.9149 28.3525ZM11.784 36.0509C11.7836 36.3853 11.5126 36.6563 11.1782 36.6567H9.96649C9.63206 36.6563 9.36105 36.3853 9.36065 36.0509V16.0583H11.784V36.0509ZM9.36065 14.8467H11.582V11.8175C11.5817 11.4831 11.3333 11.2121 11.0267 11.2117H9.916C9.60944 11.2121 9.36102 11.4831 9.36065 11.8175V14.8467Z" fill="#999999"/>
</svg>
