<svg width="24" height="26" viewBox="0 0 24 26" fill="none" xmlns="http://www.w3.org/2000/svg">
<path fill-rule="evenodd" clip-rule="evenodd" d="M16.2101 16.9316L23.3298 24.6987C23.5146 24.9074 23.5119 25.2391 23.3239 25.4442C23.1358 25.6494 22.8318 25.6523 22.6405 25.4507L15.5208 17.6836C11.7745 21.3627 6.0232 21.1159 2.55351 17.1269C-0.91618 13.138 -0.840725 6.85956 2.72364 2.97121C6.288 -0.917144 12.0433 -0.999458 15.6999 2.78561C19.3564 6.57069 19.5827 12.8448 16.2101 16.9316ZM1.04847 10.1843C1.04847 15.1773 4.75883 19.2249 9.33579 19.2249C13.9105 19.2191 17.6177 15.1749 17.6231 10.1843C17.6231 5.19132 13.9128 1.1437 9.33579 1.1437C4.75883 1.1437 1.04847 5.19132 1.04847 10.1843Z" fill="black"/>
</svg>
