<svg width="44" height="48" viewBox="0 0 44 48" fill="none" xmlns="http://www.w3.org/2000/svg">
<path fill-rule="evenodd" clip-rule="evenodd" d="M34.1 12H9.9C8.98873 12 8.25 12.8059 8.25 13.8V34.2C8.25 35.1941 8.98873 36 9.9 36H34.1C35.0113 36 35.75 35.1941 35.75 34.2V13.8C35.75 12.8059 35.0113 12 34.1 12ZM34.65 34.2C34.65 34.5314 34.4037 34.8 34.1 34.8H9.89995C9.5962 34.8 9.34995 34.5314 9.34995 34.2V13.8C9.34995 13.4687 9.5962 13.2 9.89995 13.2H34.1C34.4037 13.2 34.65 13.4687 34.65 13.8V34.2ZM15.3999 19.2C15.7036 19.2 15.9499 18.9314 15.9499 18.6C15.9499 18.2686 15.7036 18 15.3999 18H12.0999C11.7961 18 11.5499 18.2686 11.5499 18.6C11.5499 18.9314 11.7961 19.2 12.0999 19.2H15.3999ZM21.9999 19.2H17.5999C17.2962 19.2 17.0499 18.9314 17.0499 18.6C17.0499 18.2686 17.2962 18 17.5999 18H21.9999C22.3037 18 22.5499 18.2686 22.5499 18.6C22.5499 18.9314 22.3037 19.2 21.9999 19.2ZM26.951 24.76C27.6536 24.2656 28.4918 24.0002 29.351 24C31.16 23.999 32.7663 25.1571 33.3368 26.8738C33.9074 28.5905 33.3139 30.4797 31.8642 31.5617C30.4144 32.6438 28.4345 32.6754 26.951 31.6401C25.2055 32.8627 22.8209 32.5843 21.404 30.9923C19.9872 29.4004 19.9872 26.9996 21.404 25.4077C22.8209 23.8158 25.2055 23.5373 26.951 24.76ZM24.2 31.2C22.6812 31.2 21.45 29.8569 21.45 28.2C21.45 26.5431 22.6812 25.2 24.2 25.2C25.7188 25.2 26.95 26.5431 26.95 28.2C26.9483 29.8561 25.7181 31.1981 24.2 31.2ZM27.2184 30.7787C27.6361 31.0514 28.1132 31.1969 28.6001 31.2C30.1188 31.2 31.3501 29.8569 31.3501 28.2C31.3501 26.5431 30.1188 25.2 28.6001 25.2C28.1132 25.203 27.6361 25.3485 27.2184 25.6212C28.3273 27.1275 28.3273 29.2724 27.2184 30.7787Z" fill="#999999"/>
<ellipse cx="33" cy="15" rx="5.5" ry="6" fill="#999999" stroke="white"/>
<path d="M31.1666 15.5L33 17L35.75 13" stroke="white" stroke-linecap="round" stroke-linejoin="round"/>
</svg>
