<svg width="17" height="23" viewBox="0 0 17 23" fill="none" xmlns="http://www.w3.org/2000/svg">
<path fill-rule="evenodd" clip-rule="evenodd" d="M13.5859 5.42956C14.137 8.04536 12.959 10.7298 10.7456 11.9018C14.0777 13.0124 16.3554 16.365 16.3601 20.1659V21.6059C16.3601 21.871 16.1631 22.0859 15.9201 22.0859C15.6771 22.0859 15.4801 21.871 15.4801 21.6059V20.1659C15.4801 15.9243 12.3281 12.4859 8.44004 12.4859C4.55195 12.4859 1.40002 15.9243 1.40002 20.1659V21.6059C1.40002 21.871 1.20303 22.0859 0.960021 22.0859C0.717015 22.0859 0.52002 21.871 0.52002 21.6059V20.1659C0.524668 16.365 2.80234 13.0124 6.13443 11.9018C3.92104 10.7298 2.74304 8.04536 3.29423 5.42956C3.84542 2.81376 5.97968 0.959961 8.44004 0.959961C10.9004 0.959961 13.0347 2.81376 13.5859 5.42956ZM8.44004 1.92586C6.00998 1.92586 4.04003 4.07489 4.04003 6.72586C4.04275 9.37559 6.01111 11.5229 8.44004 11.5259C10.8701 11.5259 12.8401 9.37682 12.8401 6.72586C12.8401 4.07489 10.8701 1.92586 8.44004 1.92586Z" fill="black"/>
</svg>
