<svg width="17" height="24" viewBox="0 0 17 24" fill="none" xmlns="http://www.w3.org/2000/svg">
<path fill-rule="evenodd" clip-rule="evenodd" d="M14.6833 3.84C15.1531 3.83988 15.5401 4.24237 15.5625 4.7543L16.3588 22.9943C16.3703 23.2566 16.2828 23.5125 16.1167 23.7025C15.9506 23.8925 15.7204 24 15.4797 24H1.3997C1.15909 23.9999 0.92902 23.8923 0.763018 23.7023C0.597016 23.5123 0.509565 23.2565 0.521018 22.9943L1.31724 4.7543C1.3396 4.24241 1.72659 3.83993 2.19636 3.84H4.96247C4.96247 1.71923 6.53842 0 8.48247 0C10.4265 0 12.0025 1.71923 12.0025 3.84H14.6833ZM11.1225 3.84C11.1208 2.25017 9.93981 0.961799 8.48246 0.96C7.02511 0.961799 5.84411 2.25017 5.84246 3.84H11.1225ZM2.19637 4.8H4.96247V8.16C4.96247 8.4251 5.15947 8.64 5.40247 8.64C5.64548 8.64 5.84247 8.4251 5.84247 8.16V4.8H11.1225V8.16C11.1225 8.4251 11.3195 8.64 11.5625 8.64C11.8055 8.64 12.0025 8.4251 12.0025 8.16V4.8H14.6732L15.3098 19.2H1.56779L2.19637 4.8ZM1.52545 20.16L1.3997 23.04H15.4797L15.3522 20.16H1.52545Z" fill="#333333"/>
</svg>
